Coordinates
version=1
nRows=15
nColumns=23
inDegrees=yes

Units are S.I. units (second, meters, Newtons, ...)
If the header above contains a line with 'inDegrees', this indicates whether rotational values are in degrees (yes) or radians (no).

endheader
time	pelvis_tilt	pelvis_list	pelvis_rotation	pelvis_tx	pelvis_ty	pelvis_tz	hip_flexion_r	hip_adduction_r	hip_rotation_r	knee_angle_r	knee_angle_r_beta	ankle_angle_r	subtalar_angle_r	mtp_angle_r	hip_flexion_l	hip_adduction_l	hip_rotation_l	knee_angle_l	knee_angle_l_beta	ankle_angle_l	subtalar_angle_l	mtp_angle_l
      0.00000000	     -2.16615648	     -2.29357387	      0.16328897	      2.04361969	      0.97292814	      1.09861161	     11.39587646	      3.79385676	     -7.25581892	     39.44711815	      0.68848209	     27.05828933	     -2.88793268	      0.00000000	     25.16915893	     -7.05210151	      0.41777195	     85.18572390	      1.48677136	      4.18843571	     -6.28536101	      0.00000000
      0.00666667	     -2.16034392	     -1.89727620	      0.27905299	      2.04426849	      0.97680554	      1.09818656	      9.35418122	      3.35828946	     -7.42835186	     37.69334767	      0.65787302	     26.68199653	     -2.00466627	      0.00000000	     25.97423986	     -6.57573542	      0.06359887	     83.50246631	      1.45739297	      4.61613729	     -6.26522523	      0.00000000
      0.01333333	     -2.82090154	     -1.38597902	      0.26149833	      2.04456849	      0.97962738	      1.09794244	      8.18595326	      2.92735372	     -7.15212692	     36.14375996	      0.63082762	     26.34848421	     -1.54260127	      0.00000000	     27.45501793	     -5.97640603	     -0.39542599	     81.79417143	      1.42757760	      5.02149189	     -6.08493410	      0.00000000
      0.02000000	     -2.28384322	     -1.02961488	      0.61662757	      2.04591535	      0.98419076	      1.09723706	      5.33788450	      2.56688675	     -7.56766555	     33.90610149	      0.59177311	     25.54920043	     -0.88421663	      0.00000000	     27.42375362	     -5.42444443	     -0.57096407	     79.77190588	      1.39228241	      5.44860959	     -5.91304913	      0.00000000
      0.02666667	     -2.46667739	     -0.49895529	      0.80953176	      2.04687560	      0.98773872	      1.09670029	      3.50163121	      2.07252002	     -7.69402104	     32.03542265	      0.55912360	     24.64653815	     -0.50149710	      0.00000000	     28.11358658	     -4.68761281	     -0.89625462	     77.66541584	      1.35551722	      5.82806483	     -5.73962616	      0.00000000
      0.03333333	     -2.65253822	     -0.01325078	      0.98533125	      2.04793485	      0.99136046	      1.09624164	      1.68613127	      1.65752512	     -7.79459202	     30.13683475	      0.52598699	     23.46024759	     -0.10990439	      0.00000000	     28.69407526	     -4.01608369	     -1.25054562	     75.38410057	      1.31570076	      6.16374545	     -5.54064522	      0.00000000
      0.04000000	     -2.92258940	      0.48475644	      1.19158452	      2.04907542	      0.99494339	      1.09570926	      0.01893176	      1.21781296	     -7.98392765	     28.30520565	      0.49401903	     22.01827548	      0.19974023	      0.00000000	     29.25973210	     -3.29139394	     -1.58432114	     72.90741200	      1.27247439	      6.45422808	     -5.33417215	      0.00000000
      0.04666667	     -3.32063910	      1.00848320	      1.42230210	      2.05024167	      0.99841267	      1.09510657	     -1.41364647	      0.72542629	     -8.28648746	     26.62185123	      0.46463896	     20.35749050	      0.47140996	      0.00000000	     29.86432308	     -2.50315391	     -1.91283442	     70.24050157	      1.22592802	      6.70975061	     -5.07968005	      0.00000000
      0.05333333	     -3.69670063	      1.48363938	      1.66590512	      2.05149217	      1.00196944	      1.09451444	     -2.82250891	      0.29639119	     -8.63362278	     24.97320693	      0.43586469	     18.45096475	      0.72087600	      0.00000000	     30.33145034	     -1.75824588	     -2.22995495	     67.35940633	      1.17564342	      6.93470041	     -4.78348798	      0.00000000
      0.06000000	     -4.05816306	      1.89280745	      1.89321818	      2.05275625	      1.00559117	      1.09390008	     -4.18032139	     -0.04545532	     -8.93084301	     23.37683729	      0.40800278	     16.31032687	      0.89484555	      0.00000000	     30.67866541	     -1.08121369	     -2.54360865	     64.28821351	      1.12204100	      7.14495699	     -4.42740031	      0.00000000
      0.06666667	     -4.50167964	      2.29742120	      2.14716920	      2.05402717	      1.00905151	      1.09325050	     -5.33274563	     -0.40733519	     -9.33086688	     21.96328548	      0.38333165	     14.02229739	      0.96901587	      0.00000000	     31.01692043	     -0.39065317	     -2.86258908	     61.03210923	      1.06521126	      7.35660985	     -3.94221042	      0.00000000
      0.07333333	     -4.96746987	      2.65569175	      2.39328362	      2.05525852	      1.01244641	      1.09258161	     -6.34840124	     -0.73100381	     -9.73877272	     20.70432353	      0.36135861	     11.58376113	      1.00836498	      0.00000000	     31.28389081	      0.26651267	     -3.17395142	     57.59919581	      1.00529561	      7.57290328	     -3.33241350	      0.00000000
      0.08000000	     -5.57212959	      3.00042774	      2.66706433	      2.05647643	      1.01550914	      1.09179657	     -7.05743839	     -1.10465214	    -10.33556976	     19.72839951	      0.34432553	      9.16065734	      1.17197378	      0.00000000	     31.61879308	      0.93246075	     -3.50090437	     54.03112317	      0.94302100	      7.83869006	     -2.57106766	      0.00000000
      0.08666667	     -5.96953304	      3.28109846	      2.95486624	      2.05773470	      1.01877416	      1.09095903	     -7.95218749	     -1.38242805	    -10.89621505	     18.75034170	      0.32725520	      6.55373392	      1.21854864	      0.00000000	     31.61625618	      1.54953194	     -3.79969684	     50.28051951	      0.87756062	      8.11924124	     -1.71555473	      0.00000000
      0.09333333	     -6.39760707	      3.47501869	      3.21673231	      2.05897327	      1.02181754	      1.09008235	     -8.69518895	     -1.57157165	    -11.31868552	     17.93893735	      0.31309352	      3.88145847	      1.09731895	      0.00000000	     31.57950181	      2.08734002	     -4.09704979	     46.45022094	      0.81070929	      8.43231582	     -0.66845684	      0.00000000
